<?xml version="1.0" encoding="utf-8"?>
<!-- Generator: Adobe Illustrator 23.0.1, SVG Export Plug-In . SVG Version: 6.00 Build 0)  -->
<svg version="1.1" id="Layer_1" focusable="false" xmlns="http://www.w3.org/2000/svg" xmlns:xlink="http://www.w3.org/1999/xlink"
	 x="0px" y="0px" viewBox="0 0 3324 512" style="enable-background:new 0 0 3324 512;" xml:space="preserve">
<style type="text/css">
	.st0{fill:#364D6F;}
	.st1{fill:#FFFFFF;}
</style>
<g>
	<rect x="640.9" y="83.3" class="st0" width="2683.1" height="345.3"/>
	<g>
		<path class="st1" d="M851.1,326.9h-41.4l-41.4-141.8h32.1l30.7,117.6h1.1l30.5-117.6h29.8L851.1,326.9z"/>
		<path class="st1" d="M907.8,326.9V185.1h87.2v23.3h-59.6v34.9h45.6l-2.1,24.4h-43.5V304h59.6v22.9H907.8z"/>
		<path class="st1" d="M1044.7,326.9h-27.3V185.1h45.6c27.9,0,50.6,13,50.6,42.6c0,19.1-10.9,33.4-26.9,40.7
			c9.9,19.7,20.2,38.6,30,58.4h-32.3l-23.3-53.6c-6.3,0.2-10.5,0.2-16.4,0.2V326.9z M1058.6,206.5h-13.9v45.4h13.9
			c18.1,0,25.6-8.2,25.6-24.4C1084.2,211.8,1075.2,206.5,1058.6,206.5z"/>
		<path class="st1" d="M1252.4,326.9H1211l-41.4-141.8h32.1l30.7,117.6h1.1l30.5-117.6h29.8L1252.4,326.9z"/>
		<path class="st1" d="M1312.2,326.9V185.1h27.5v141.8H1312.2z"/>
		<path class="st1" d="M1420.8,329c-20.6,0-37.4-3.8-50.4-7.6V185.1h47.3c41.2,0,67.2,16.8,67.2,69.5
			C1484.9,300.6,1464.9,329,1420.8,329z M1416.6,207.4h-18.7v95.6c4.8,1.5,14.3,2.9,24.4,2.9c18.5,0,33.4-10.7,33.4-51.5
			C1455.7,220.2,1445,207.4,1416.6,207.4z"/>
		<path class="st1" d="M1509.6,326.9V185.1h87.2v23.3h-59.6v34.9h45.6l-2.1,24.4h-43.5V304h59.6v22.9H1509.6z"/>
		<path class="st1" d="M1669.7,329c-46.8,0-60.3-35.5-60.3-74.1c0-37.2,13-71.8,60.3-71.8c48.1,0,60.7,34.2,60.7,71.8
			C1730.4,292.9,1716.5,329,1669.7,329z M1669.7,206.8c-24.8,0-31.3,22.5-31.3,47.9c0,28.1,6.3,51.2,31.3,51.2
			c24.4,0,31.5-22.7,31.5-51.2C1701.2,228.8,1694.4,206.8,1669.7,206.8z"/>
		<path class="st1" d="M1802.8,326.9V185.1h27.5v141.8H1802.8z"/>
		<path class="st1" d="M1929.2,326.9l-44.1-111.5h-0.8l1.9,111.5h-24.8V185.1h42.2l44.7,113.8h0.8l-1.9-113.8h25.4v141.8H1929.2z"/>
		<path class="st1" d="M2041.4,329c-18.9,0-34.9-6.7-46.2-15.1l10.5-21.6c8.2,7.1,23.1,13.7,36.1,13.7s21.8-8,21.8-18.7
			c0-30-65.5-15.1-65.5-65.1c0-21.4,16.8-39.1,50-39.1c16.6,0,30.7,3.6,42.2,9.7l-9.2,22.1c-7.8-4.6-20.4-7.8-33.4-7.8
			c-12.8,0-21.2,4.2-21.2,14.7c0,25.4,65.9,15.5,65.9,63.8C2092.4,308,2073.7,329,2041.4,329z"/>
		<path class="st1" d="M2162.7,208.4v118.4h-28.6V208.4h-34.2v-23.3h98.1v23.3H2162.7z"/>
		<path class="st1" d="M2218.2,326.9V185.1h27.5v141.8H2218.2z"/>
		<path class="st1" d="M2328.6,208.4v118.4h-28.6V208.4h-34.2v-23.3h98.1v23.3H2328.6z"/>
		<path class="st1" d="M2487.8,273.3c0,29.6-16,55.7-53.3,55.7c-37.2,0-53.3-25.2-53.3-55.7v-88.2h27.5v86.3
			c0,20.8,8.2,34.2,25.8,34.2c17.4,0,25.4-13.4,25.4-34.2v-86.3h27.9V273.3z"/>
		<path class="st1" d="M2572.4,329c-39.9,0-61.3-26.5-61.3-73.7c0-44.1,21.2-72.2,61.3-72.2c19.3,0,36.8,4.2,48.3,12l-10.5,22.3
			c-7.3-5.7-20.2-9.9-34.9-9.9c-23.5,0-35.3,16.6-35.3,47.7c0,32.8,11.8,49.6,34.9,49.6c13.9,0,27.7-5.9,37.4-13l8.8,22.3
			C2607.1,323.5,2591.1,329,2572.4,329z"/>
		<path class="st1" d="M2644.5,326.9V185.1h27.5v141.8H2644.5z"/>
		<path class="st1" d="M2758.5,329c-46.8,0-60.3-35.5-60.3-74.1c0-37.2,13-71.8,60.3-71.8c48.1,0,60.7,34.2,60.7,71.8
			C2819.2,292.9,2805.3,329,2758.5,329z M2758.5,206.8c-24.8,0-31.3,22.5-31.3,47.9c0,28.1,6.3,51.2,31.3,51.2
			c24.4,0,31.5-22.7,31.5-51.2C2790,228.8,2783.3,206.8,2758.5,206.8z"/>
		<path class="st1" d="M2910.3,326.9l-44.1-111.5h-0.8l1.9,111.5h-24.8V185.1h42.2l44.7,113.8h0.8l-1.9-113.8h25.4v141.8H2910.3z"/>
		<path class="st1" d="M2997.5,326.9h-26.9l38.4-141.8h45.8l37.2,141.8h-30.9l-7.4-31.9H3005L2997.5,326.9z M3025.6,209.3
			l-15.5,63.4h38.6l-14.5-63.4H3025.6z"/>
		<path class="st1" d="M3109.4,326.9V185.1h27.5v118.7h59.6v23.1H3109.4z"/>
	</g>
</g>
<g>
	<circle class="st0" cx="256" cy="256" r="256"/>
	<path class="st1" d="M375.4,280.8L193.8,385c-16.3,9.1-36.9-2.6-36.9-21.7V148.6c0-19,20.4-30.8,36.9-21.7l181.7,110.5
		C392.4,246.9,392.4,271.4,375.4,280.8z"/>
</g>
</svg>
